{
 "cells": [
  {
   "cell_type": "markdown",
   "id": "7d30043b",
   "metadata": {},
   "source": [
    "## VMAF"
   ]
  },
  {
   "cell_type": "code",
   "execution_count": 11,
   "id": "34644f41",
   "metadata": {
    "scrolled": false
   },
   "outputs": [
    {
     "name": "stderr",
     "output_type": "stream",
     "text": [
      "ffmpeg version N-106635-g83e1a1de88 Copyright (c) 2000-2022 the FFmpeg developers\n",
      "  built with gcc 9 (Ubuntu 9.4.0-1ubuntu1~20.04.1)\n",
      "  configuration: --prefix=/home/ubuntu/ffmpeg_build --pkg-config-flags=--static --extra-cflags=-I/home/ubuntu/ffmpeg_build/include --extra-ldflags=-L/home/ubuntu/ffmpeg_build/lib --extra-libs='-lpthread -lm' --ld=g++ --bindir=/home/ubuntu/bin --enable-gpl --enable-gnutls --enable-libaom --enable-libass --enable-libfdk-aac --enable-libfreetype --enable-libmp3lame --enable-libopus --enable-libsvtav1 --enable-libdav1d --enable-libvorbis --enable-libvpx --enable-libx264 --enable-libx265 --enable-libvmaf --enable-version3 --enable-nonfree\n",
      "  libavutil      57. 24.101 / 57. 24.101\n",
      "  libavcodec     59. 26.100 / 59. 26.100\n",
      "  libavformat    59. 22.100 / 59. 22.100\n",
      "  libavdevice    59.  6.100 / 59.  6.100\n",
      "  libavfilter     8. 33.100 /  8. 33.100\n",
      "  libswscale      6.  6.100 /  6.  6.100\n",
      "  libswresample   4.  6.100 /  4.  6.100\n",
      "  libpostproc    56.  5.100 / 56.  5.100\n",
      "[rawvideo @ 0x55ca52e945c0] Estimating duration from bitrate, this may be inaccurate\n",
      "Input #0, rawvideo, from 'test_vids/refs/waterfall.yuv':\n",
      "  Duration: 00:00:04.00, start: 0.000000, bitrate: 4976640 kb/s\n",
      "  Stream #0:0: Video: rawvideo (I420 / 0x30323449), yuv420p, 3840x2160, 4976640 kb/s, 50 tbr, 50 tbn\n",
      "Input #1, mov,mp4,m4a,3gp,3g2,mj2, from 'test_vids/encoded/waterfall/waterfallAVC_cf10.mp4':\n",
      "  Metadata:\n",
      "    major_brand     : isom\n",
      "    minor_version   : 512\n",
      "    compatible_brands: isomiso2avc1mp41\n",
      "    encoder         : Lavf59.22.100\n",
      "  Duration: 00:00:04.00, start: 0.000000, bitrate: 392953 kb/s\n",
      "  Stream #1:0[0x1](und): Video: h264 (High) (avc1 / 0x31637661), yuv420p(progressive), 3840x2160, 392945 kb/s, 50 fps, 50 tbr, 12800 tbn (default)\n",
      "    Metadata:\n",
      "      handler_name    : VideoHandler\n",
      "      vendor_id       : [0][0][0][0]\n",
      "Stream mapping:\n",
      "  Stream #0:0 (rawvideo) -> setpts:default\n",
      "  Stream #1:0 (h264) -> scale:default\n",
      "  libvmaf:default -> Stream #0:0 (wrapped_avframe)\n",
      "Press [q] to stop, [?] for help\n",
      "Output #0, null, to 'pipe:':\n",
      "  Metadata:\n",
      "    encoder         : Lavf59.22.100\n",
      "  Stream #0:0: Video: wrapped_avframe, yuv420p(progressive), 3840x2160, q=2-31, 200 kb/s, 50 fps, 50 tbn\n",
      "    Metadata:\n",
      "      encoder         : Lavc59.26.100 wrapped_avframe\n",
      "frame=  200 fps=1.9 q=-0.0 Lsize=N/A time=00:00:04.00 bitrate=N/A speed=0.0371x    \n",
      "video:92kB audio:0kB subtitle:0kB other streams:0kB global headers:0kB muxing overhead: unknown\n",
      "[Parsed_libvmaf_3 @ 0x55ca55013a40] VMAF score: 99.978496\n",
      "ffmpeg version N-106635-g83e1a1de88 Copyright (c) 2000-2022 the FFmpeg developers\n",
      "  built with gcc 9 (Ubuntu 9.4.0-1ubuntu1~20.04.1)\n",
      "  configuration: --prefix=/home/ubuntu/ffmpeg_build --pkg-config-flags=--static --extra-cflags=-I/home/ubuntu/ffmpeg_build/include --extra-ldflags=-L/home/ubuntu/ffmpeg_build/lib --extra-libs='-lpthread -lm' --ld=g++ --bindir=/home/ubuntu/bin --enable-gpl --enable-gnutls --enable-libaom --enable-libass --enable-libfdk-aac --enable-libfreetype --enable-libmp3lame --enable-libopus --enable-libsvtav1 --enable-libdav1d --enable-libvorbis --enable-libvpx --enable-libx264 --enable-libx265 --enable-libvmaf --enable-version3 --enable-nonfree\n",
      "  libavutil      57. 24.101 / 57. 24.101\n",
      "  libavcodec     59. 26.100 / 59. 26.100\n",
      "  libavformat    59. 22.100 / 59. 22.100\n",
      "  libavdevice    59.  6.100 / 59.  6.100\n",
      "  libavfilter     8. 33.100 /  8. 33.100\n",
      "  libswscale      6.  6.100 /  6.  6.100\n",
      "  libswresample   4.  6.100 /  4.  6.100\n",
      "  libpostproc    56.  5.100 / 56.  5.100\n",
      "[rawvideo @ 0x563b1ff085c0] Estimating duration from bitrate, this may be inaccurate\n",
      "Input #0, rawvideo, from 'test_vids/refs/waterfall.yuv':\n",
      "  Duration: 00:00:04.00, start: 0.000000, bitrate: 4976640 kb/s\n",
      "  Stream #0:0: Video: rawvideo (I420 / 0x30323449), yuv420p, 3840x2160, 4976640 kb/s, 50 tbr, 50 tbn\n",
      "Input #1, mov,mp4,m4a,3gp,3g2,mj2, from 'test_vids/encoded/waterfall/waterfallAVC_cf17.mp4':\n",
      "  Metadata:\n",
      "    major_brand     : isom\n",
      "    minor_version   : 512\n",
      "    compatible_brands: isomiso2avc1mp41\n",
      "    encoder         : Lavf59.22.100\n",
      "  Duration: 00:00:04.00, start: 0.000000, bitrate: 185173 kb/s\n",
      "  Stream #1:0[0x1](und): Video: h264 (High) (avc1 / 0x31637661), yuv420p(progressive), 3840x2160, 185166 kb/s, 50 fps, 50 tbr, 12800 tbn (default)\n",
      "    Metadata:\n",
      "      handler_name    : VideoHandler\n",
      "      vendor_id       : [0][0][0][0]\n",
      "Stream mapping:\n",
      "  Stream #0:0 (rawvideo) -> setpts:default\n",
      "  Stream #1:0 (h264) -> scale:default\n",
      "  libvmaf:default -> Stream #0:0 (wrapped_avframe)\n",
      "Press [q] to stop, [?] for help\n",
      "Output #0, null, to 'pipe:':\n",
      "  Metadata:\n",
      "    encoder         : Lavf59.22.100\n",
      "  Stream #0:0: Video: wrapped_avframe, yuv420p(progressive), 3840x2160, q=2-31, 200 kb/s, 50 fps, 50 tbn\n",
      "    Metadata:\n",
      "      encoder         : Lavc59.26.100 wrapped_avframe\n",
      "frame=  200 fps=1.9 q=-0.0 Lsize=N/A time=00:00:04.00 bitrate=N/A speed=0.0374x    \n",
      "video:92kB audio:0kB subtitle:0kB other streams:0kB global headers:0kB muxing overhead: unknown\n",
      "[Parsed_libvmaf_3 @ 0x563b22087e00] VMAF score: 99.858462\n",
      "ffmpeg version N-106635-g83e1a1de88 Copyright (c) 2000-2022 the FFmpeg developers\n",
      "  built with gcc 9 (Ubuntu 9.4.0-1ubuntu1~20.04.1)\n",
      "  configuration: --prefix=/home/ubuntu/ffmpeg_build --pkg-config-flags=--static --extra-cflags=-I/home/ubuntu/ffmpeg_build/include --extra-ldflags=-L/home/ubuntu/ffmpeg_build/lib --extra-libs='-lpthread -lm' --ld=g++ --bindir=/home/ubuntu/bin --enable-gpl --enable-gnutls --enable-libaom --enable-libass --enable-libfdk-aac --enable-libfreetype --enable-libmp3lame --enable-libopus --enable-libsvtav1 --enable-libdav1d --enable-libvorbis --enable-libvpx --enable-libx264 --enable-libx265 --enable-libvmaf --enable-version3 --enable-nonfree\n",
      "  libavutil      57. 24.101 / 57. 24.101\n",
      "  libavcodec     59. 26.100 / 59. 26.100\n",
      "  libavformat    59. 22.100 / 59. 22.100\n",
      "  libavdevice    59.  6.100 / 59.  6.100\n",
      "  libavfilter     8. 33.100 /  8. 33.100\n",
      "  libswscale      6.  6.100 /  6.  6.100\n",
      "  libswresample   4.  6.100 /  4.  6.100\n",
      "  libpostproc    56.  5.100 / 56.  5.100\n",
      "[rawvideo @ 0x562d371835c0] Estimating duration from bitrate, this may be inaccurate\n",
      "Input #0, rawvideo, from 'test_vids/refs/waterfall.yuv':\n",
      "  Duration: 00:00:04.00, start: 0.000000, bitrate: 4976640 kb/s\n",
      "  Stream #0:0: Video: rawvideo (I420 / 0x30323449), yuv420p, 3840x2160, 4976640 kb/s, 50 tbr, 50 tbn\n",
      "Input #1, mov,mp4,m4a,3gp,3g2,mj2, from 'test_vids/encoded/waterfall/waterfallAVC_cf23.mp4':\n",
      "  Metadata:\n",
      "    major_brand     : isom\n",
      "    minor_version   : 512\n",
      "    compatible_brands: isomiso2avc1mp41\n",
      "    encoder         : Lavf59.22.100\n",
      "  Duration: 00:00:04.00, start: 0.000000, bitrate: 90686 kb/s\n",
      "  Stream #1:0[0x1](und): Video: h264 (High) (avc1 / 0x31637661), yuv420p(progressive), 3840x2160, 90679 kb/s, 50 fps, 50 tbr, 12800 tbn (default)\n",
      "    Metadata:\n",
      "      handler_name    : VideoHandler\n",
      "      vendor_id       : [0][0][0][0]\n",
      "Stream mapping:\n",
      "  Stream #0:0 (rawvideo) -> setpts:default\n",
      "  Stream #1:0 (h264) -> scale:default\n",
      "  libvmaf:default -> Stream #0:0 (wrapped_avframe)\n",
      "Press [q] to stop, [?] for help\n",
      "Output #0, null, to 'pipe:':\n",
      "  Metadata:\n",
      "    encoder         : Lavf59.22.100\n",
      "  Stream #0:0: Video: wrapped_avframe, yuv420p(progressive), 3840x2160, q=2-31, 200 kb/s, 50 fps, 50 tbn\n",
      "    Metadata:\n",
      "      encoder         : Lavc59.26.100 wrapped_avframe\n",
      "frame=  200 fps=1.9 q=-0.0 Lsize=N/A time=00:00:04.00 bitrate=N/A speed=0.0375x    \n",
      "video:92kB audio:0kB subtitle:0kB other streams:0kB global headers:0kB muxing overhead: unknown\n",
      "[Parsed_libvmaf_3 @ 0x562d39303380] VMAF score: 90.453461\n",
      "ffmpeg version N-106635-g83e1a1de88 Copyright (c) 2000-2022 the FFmpeg developers\n",
      "  built with gcc 9 (Ubuntu 9.4.0-1ubuntu1~20.04.1)\n",
      "  configuration: --prefix=/home/ubuntu/ffmpeg_build --pkg-config-flags=--static --extra-cflags=-I/home/ubuntu/ffmpeg_build/include --extra-ldflags=-L/home/ubuntu/ffmpeg_build/lib --extra-libs='-lpthread -lm' --ld=g++ --bindir=/home/ubuntu/bin --enable-gpl --enable-gnutls --enable-libaom --enable-libass --enable-libfdk-aac --enable-libfreetype --enable-libmp3lame --enable-libopus --enable-libsvtav1 --enable-libdav1d --enable-libvorbis --enable-libvpx --enable-libx264 --enable-libx265 --enable-libvmaf --enable-version3 --enable-nonfree\n",
      "  libavutil      57. 24.101 / 57. 24.101\n",
      "  libavcodec     59. 26.100 / 59. 26.100\n",
      "  libavformat    59. 22.100 / 59. 22.100\n",
      "  libavdevice    59.  6.100 / 59.  6.100\n",
      "  libavfilter     8. 33.100 /  8. 33.100\n",
      "  libswscale      6.  6.100 /  6.  6.100\n",
      "  libswresample   4.  6.100 /  4.  6.100\n",
      "  libpostproc    56.  5.100 / 56.  5.100\n",
      "[rawvideo @ 0x5609eb6b35c0] Estimating duration from bitrate, this may be inaccurate\n",
      "Input #0, rawvideo, from 'test_vids/refs/waterfall.yuv':\n",
      "  Duration: 00:00:04.00, start: 0.000000, bitrate: 4976640 kb/s\n",
      "  Stream #0:0: Video: rawvideo (I420 / 0x30323449), yuv420p, 3840x2160, 4976640 kb/s, 50 tbr, 50 tbn\n"
     ]
    },
    {
     "name": "stderr",
     "output_type": "stream",
     "text": [
      "Input #1, mov,mp4,m4a,3gp,3g2,mj2, from 'test_vids/encoded/waterfall/waterfallAVC_cf29.mp4':\n",
      "  Metadata:\n",
      "    major_brand     : isom\n",
      "    minor_version   : 512\n",
      "    compatible_brands: isomiso2avc1mp41\n",
      "    encoder         : Lavf59.22.100\n",
      "  Duration: 00:00:04.00, start: 0.000000, bitrate: 38788 kb/s\n",
      "  Stream #1:0[0x1](und): Video: h264 (High) (avc1 / 0x31637661), yuv420p(progressive), 3840x2160, 38781 kb/s, 50 fps, 50 tbr, 12800 tbn (default)\n",
      "    Metadata:\n",
      "      handler_name    : VideoHandler\n",
      "      vendor_id       : [0][0][0][0]\n",
      "Stream mapping:\n",
      "  Stream #0:0 (rawvideo) -> setpts:default\n",
      "  Stream #1:0 (h264) -> scale:default\n",
      "  libvmaf:default -> Stream #0:0 (wrapped_avframe)\n",
      "Press [q] to stop, [?] for help\n",
      "Output #0, null, to 'pipe:':\n",
      "  Metadata:\n",
      "    encoder         : Lavf59.22.100\n",
      "  Stream #0:0: Video: wrapped_avframe, yuv420p(progressive), 3840x2160, q=2-31, 200 kb/s, 50 fps, 50 tbn\n",
      "    Metadata:\n",
      "      encoder         : Lavc59.26.100 wrapped_avframe\n",
      "frame=  200 fps=1.9 q=-0.0 Lsize=N/A time=00:00:04.00 bitrate=N/A speed=0.038x    \n",
      "video:92kB audio:0kB subtitle:0kB other streams:0kB global headers:0kB muxing overhead: unknown\n",
      "[Parsed_libvmaf_3 @ 0x5609ed833100] VMAF score: 69.706278\n",
      "ffmpeg version N-106635-g83e1a1de88 Copyright (c) 2000-2022 the FFmpeg developers\n",
      "  built with gcc 9 (Ubuntu 9.4.0-1ubuntu1~20.04.1)\n",
      "  configuration: --prefix=/home/ubuntu/ffmpeg_build --pkg-config-flags=--static --extra-cflags=-I/home/ubuntu/ffmpeg_build/include --extra-ldflags=-L/home/ubuntu/ffmpeg_build/lib --extra-libs='-lpthread -lm' --ld=g++ --bindir=/home/ubuntu/bin --enable-gpl --enable-gnutls --enable-libaom --enable-libass --enable-libfdk-aac --enable-libfreetype --enable-libmp3lame --enable-libopus --enable-libsvtav1 --enable-libdav1d --enable-libvorbis --enable-libvpx --enable-libx264 --enable-libx265 --enable-libvmaf --enable-version3 --enable-nonfree\n",
      "  libavutil      57. 24.101 / 57. 24.101\n",
      "  libavcodec     59. 26.100 / 59. 26.100\n",
      "  libavformat    59. 22.100 / 59. 22.100\n",
      "  libavdevice    59.  6.100 / 59.  6.100\n",
      "  libavfilter     8. 33.100 /  8. 33.100\n",
      "  libswscale      6.  6.100 /  6.  6.100\n",
      "  libswresample   4.  6.100 /  4.  6.100\n",
      "  libpostproc    56.  5.100 / 56.  5.100\n",
      "[rawvideo @ 0x557dc3f6a5c0] Estimating duration from bitrate, this may be inaccurate\n",
      "Input #0, rawvideo, from 'test_vids/refs/waterfall.yuv':\n",
      "  Duration: 00:00:04.00, start: 0.000000, bitrate: 4976640 kb/s\n",
      "  Stream #0:0: Video: rawvideo (I420 / 0x30323449), yuv420p, 3840x2160, 4976640 kb/s, 50 tbr, 50 tbn\n",
      "Input #1, mov,mp4,m4a,3gp,3g2,mj2, from 'test_vids/encoded/waterfall/waterfallAVC_cf35.mp4':\n",
      "  Metadata:\n",
      "    major_brand     : isom\n",
      "    minor_version   : 512\n",
      "    compatible_brands: isomiso2avc1mp41\n",
      "    encoder         : Lavf59.22.100\n",
      "  Duration: 00:00:04.00, start: 0.000000, bitrate: 14668 kb/s\n",
      "  Stream #1:0[0x1](und): Video: h264 (High) (avc1 / 0x31637661), yuv420p(progressive), 3840x2160, 14662 kb/s, 50 fps, 50 tbr, 12800 tbn (default)\n",
      "    Metadata:\n",
      "      handler_name    : VideoHandler\n",
      "      vendor_id       : [0][0][0][0]\n",
      "Stream mapping:\n",
      "  Stream #0:0 (rawvideo) -> setpts:default\n",
      "  Stream #1:0 (h264) -> scale:default\n",
      "  libvmaf:default -> Stream #0:0 (wrapped_avframe)\n",
      "Press [q] to stop, [?] for help\n",
      "Output #0, null, to 'pipe:':\n",
      "  Metadata:\n",
      "    encoder         : Lavf59.22.100\n",
      "  Stream #0:0: Video: wrapped_avframe, yuv420p(progressive), 3840x2160, q=2-31, 200 kb/s, 50 fps, 50 tbn\n",
      "    Metadata:\n",
      "      encoder         : Lavc59.26.100 wrapped_avframe\n",
      "frame=  200 fps=1.8 q=-0.0 Lsize=N/A time=00:00:04.00 bitrate=N/A speed=0.037x    \n",
      "video:92kB audio:0kB subtitle:0kB other streams:0kB global headers:0kB muxing overhead: unknown\n",
      "[Parsed_libvmaf_3 @ 0x557dc60e99c0] VMAF score: 39.844173\n",
      "ffmpeg version N-106635-g83e1a1de88 Copyright (c) 2000-2022 the FFmpeg developers\n",
      "  built with gcc 9 (Ubuntu 9.4.0-1ubuntu1~20.04.1)\n",
      "  configuration: --prefix=/home/ubuntu/ffmpeg_build --pkg-config-flags=--static --extra-cflags=-I/home/ubuntu/ffmpeg_build/include --extra-ldflags=-L/home/ubuntu/ffmpeg_build/lib --extra-libs='-lpthread -lm' --ld=g++ --bindir=/home/ubuntu/bin --enable-gpl --enable-gnutls --enable-libaom --enable-libass --enable-libfdk-aac --enable-libfreetype --enable-libmp3lame --enable-libopus --enable-libsvtav1 --enable-libdav1d --enable-libvorbis --enable-libvpx --enable-libx264 --enable-libx265 --enable-libvmaf --enable-version3 --enable-nonfree\n",
      "  libavutil      57. 24.101 / 57. 24.101\n",
      "  libavcodec     59. 26.100 / 59. 26.100\n",
      "  libavformat    59. 22.100 / 59. 22.100\n",
      "  libavdevice    59.  6.100 / 59.  6.100\n",
      "  libavfilter     8. 33.100 /  8. 33.100\n",
      "  libswscale      6.  6.100 /  6.  6.100\n",
      "  libswresample   4.  6.100 /  4.  6.100\n",
      "  libpostproc    56.  5.100 / 56.  5.100\n",
      "[rawvideo @ 0x559cfc16a5c0] Estimating duration from bitrate, this may be inaccurate\n",
      "Input #0, rawvideo, from 'test_vids/refs/waterfall.yuv':\n",
      "  Duration: 00:00:04.00, start: 0.000000, bitrate: 4976640 kb/s\n",
      "  Stream #0:0: Video: rawvideo (I420 / 0x30323449), yuv420p, 3840x2160, 4976640 kb/s, 50 tbr, 50 tbn\n",
      "Input #1, mov,mp4,m4a,3gp,3g2,mj2, from 'test_vids/encoded/waterfall/waterfallHEVC_cf15.mp4':\n",
      "  Metadata:\n",
      "    major_brand     : isom\n",
      "    minor_version   : 512\n",
      "    compatible_brands: isomiso2mp41\n",
      "    encoder         : Lavf59.22.100\n",
      "  Duration: 00:00:04.00, start: 0.000000, bitrate: 209362 kb/s\n",
      "  Stream #1:0[0x1](und): Video: hevc (Main) (hev1 / 0x31766568), yuv420p(tv, progressive), 3840x2160, 209348 kb/s, 50 fps, 50 tbr, 12800 tbn (default)\n",
      "    Metadata:\n",
      "      handler_name    : VideoHandler\n",
      "      vendor_id       : [0][0][0][0]\n",
      "Stream mapping:\n",
      "  Stream #0:0 (rawvideo) -> setpts:default\n",
      "  Stream #1:0 (hevc) -> scale:default\n",
      "  libvmaf:default -> Stream #0:0 (wrapped_avframe)\n",
      "Press [q] to stop, [?] for help\n",
      "Output #0, null, to 'pipe:':\n",
      "  Metadata:\n",
      "    encoder         : Lavf59.22.100\n",
      "  Stream #0:0: Video: wrapped_avframe, yuv420p(tv, progressive), 3840x2160, q=2-31, 200 kb/s, 50 fps, 50 tbn\n",
      "    Metadata:\n",
      "      encoder         : Lavc59.26.100 wrapped_avframe\n",
      "frame=  200 fps=1.9 q=-0.0 Lsize=N/A time=00:00:04.00 bitrate=N/A speed=0.0376x    \n",
      "video:92kB audio:0kB subtitle:0kB other streams:0kB global headers:0kB muxing overhead: unknown\n",
      "[Parsed_libvmaf_3 @ 0x559cfee57500] VMAF score: 99.941188\n",
      "ffmpeg version N-106635-g83e1a1de88 Copyright (c) 2000-2022 the FFmpeg developers\n",
      "  built with gcc 9 (Ubuntu 9.4.0-1ubuntu1~20.04.1)\n",
      "  configuration: --prefix=/home/ubuntu/ffmpeg_build --pkg-config-flags=--static --extra-cflags=-I/home/ubuntu/ffmpeg_build/include --extra-ldflags=-L/home/ubuntu/ffmpeg_build/lib --extra-libs='-lpthread -lm' --ld=g++ --bindir=/home/ubuntu/bin --enable-gpl --enable-gnutls --enable-libaom --enable-libass --enable-libfdk-aac --enable-libfreetype --enable-libmp3lame --enable-libopus --enable-libsvtav1 --enable-libdav1d --enable-libvorbis --enable-libvpx --enable-libx264 --enable-libx265 --enable-libvmaf --enable-version3 --enable-nonfree\n",
      "  libavutil      57. 24.101 / 57. 24.101\n",
      "  libavcodec     59. 26.100 / 59. 26.100\n",
      "  libavformat    59. 22.100 / 59. 22.100\n",
      "  libavdevice    59.  6.100 / 59.  6.100\n",
      "  libavfilter     8. 33.100 /  8. 33.100\n",
      "  libswscale      6.  6.100 /  6.  6.100\n",
      "  libswresample   4.  6.100 /  4.  6.100\n",
      "  libpostproc    56.  5.100 / 56.  5.100\n",
      "[rawvideo @ 0x55ef5ad675c0] Estimating duration from bitrate, this may be inaccurate\n",
      "Input #0, rawvideo, from 'test_vids/refs/waterfall.yuv':\n",
      "  Duration: 00:00:04.00, start: 0.000000, bitrate: 4976640 kb/s\n",
      "  Stream #0:0: Video: rawvideo (I420 / 0x30323449), yuv420p, 3840x2160, 4976640 kb/s, 50 tbr, 50 tbn\n",
      "Input #1, mov,mp4,m4a,3gp,3g2,mj2, from 'test_vids/encoded/waterfall/waterfallHEVC_cf22.mp4':\n",
      "  Metadata:\n",
      "    major_brand     : isom\n",
      "    minor_version   : 512\n",
      "    compatible_brands: isomiso2mp41\n",
      "    encoder         : Lavf59.22.100\n",
      "  Duration: 00:00:04.00, start: 0.000000, bitrate: 96890 kb/s\n",
      "  Stream #1:0[0x1](und): Video: hevc (Main) (hev1 / 0x31766568), yuv420p(tv, progressive), 3840x2160, 96879 kb/s, 50 fps, 50 tbr, 12800 tbn (default)\n",
      "    Metadata:\n",
      "      handler_name    : VideoHandler\n",
      "      vendor_id       : [0][0][0][0]\n",
      "Stream mapping:\n",
      "  Stream #0:0 (rawvideo) -> setpts:default\n",
      "  Stream #1:0 (hevc) -> scale:default\n",
      "  libvmaf:default -> Stream #0:0 (wrapped_avframe)\n",
      "Press [q] to stop, [?] for help\n"
     ]
    },
    {
     "name": "stderr",
     "output_type": "stream",
     "text": [
      "Output #0, null, to 'pipe:':\n",
      "  Metadata:\n",
      "    encoder         : Lavf59.22.100\n",
      "  Stream #0:0: Video: wrapped_avframe, yuv420p(tv, progressive), 3840x2160, q=2-31, 200 kb/s, 50 fps, 50 tbn\n",
      "    Metadata:\n",
      "      encoder         : Lavc59.26.100 wrapped_avframe\n",
      "frame=  200 fps=1.9 q=-0.0 Lsize=N/A time=00:00:04.00 bitrate=N/A speed=0.0372x    \n",
      "video:92kB audio:0kB subtitle:0kB other streams:0kB global headers:0kB muxing overhead: unknown\n",
      "[Parsed_libvmaf_3 @ 0x55ef5da54180] VMAF score: 91.522559\n",
      "ffmpeg version N-106635-g83e1a1de88 Copyright (c) 2000-2022 the FFmpeg developers\n",
      "  built with gcc 9 (Ubuntu 9.4.0-1ubuntu1~20.04.1)\n",
      "  configuration: --prefix=/home/ubuntu/ffmpeg_build --pkg-config-flags=--static --extra-cflags=-I/home/ubuntu/ffmpeg_build/include --extra-ldflags=-L/home/ubuntu/ffmpeg_build/lib --extra-libs='-lpthread -lm' --ld=g++ --bindir=/home/ubuntu/bin --enable-gpl --enable-gnutls --enable-libaom --enable-libass --enable-libfdk-aac --enable-libfreetype --enable-libmp3lame --enable-libopus --enable-libsvtav1 --enable-libdav1d --enable-libvorbis --enable-libvpx --enable-libx264 --enable-libx265 --enable-libvmaf --enable-version3 --enable-nonfree\n",
      "  libavutil      57. 24.101 / 57. 24.101\n",
      "  libavcodec     59. 26.100 / 59. 26.100\n",
      "  libavformat    59. 22.100 / 59. 22.100\n",
      "  libavdevice    59.  6.100 / 59.  6.100\n",
      "  libavfilter     8. 33.100 /  8. 33.100\n",
      "  libswscale      6.  6.100 /  6.  6.100\n",
      "  libswresample   4.  6.100 /  4.  6.100\n",
      "  libpostproc    56.  5.100 / 56.  5.100\n",
      "[rawvideo @ 0x5603cf6955c0] Estimating duration from bitrate, this may be inaccurate\n",
      "Input #0, rawvideo, from 'test_vids/refs/waterfall.yuv':\n",
      "  Duration: 00:00:04.00, start: 0.000000, bitrate: 4976640 kb/s\n",
      "  Stream #0:0: Video: rawvideo (I420 / 0x30323449), yuv420p, 3840x2160, 4976640 kb/s, 50 tbr, 50 tbn\n",
      "Input #1, mov,mp4,m4a,3gp,3g2,mj2, from 'test_vids/encoded/waterfall/waterfallHEVC_cf28.mp4':\n",
      "  Metadata:\n",
      "    major_brand     : isom\n",
      "    minor_version   : 512\n",
      "    compatible_brands: isomiso2mp41\n",
      "    encoder         : Lavf59.22.100\n",
      "  Duration: 00:00:04.00, start: 0.000000, bitrate: 44696 kb/s\n",
      "  Stream #1:0[0x1](und): Video: hevc (Main) (hev1 / 0x31766568), yuv420p(tv, progressive), 3840x2160, 44684 kb/s, 50 fps, 50 tbr, 12800 tbn (default)\n",
      "    Metadata:\n",
      "      handler_name    : VideoHandler\n",
      "      vendor_id       : [0][0][0][0]\n",
      "Stream mapping:\n",
      "  Stream #0:0 (rawvideo) -> setpts:default\n",
      "  Stream #1:0 (hevc) -> scale:default\n",
      "  libvmaf:default -> Stream #0:0 (wrapped_avframe)\n",
      "Press [q] to stop, [?] for help\n",
      "Output #0, null, to 'pipe:':\n",
      "  Metadata:\n",
      "    encoder         : Lavf59.22.100\n",
      "  Stream #0:0: Video: wrapped_avframe, yuv420p(tv, progressive), 3840x2160, q=2-31, 200 kb/s, 50 fps, 50 tbn\n",
      "    Metadata:\n",
      "      encoder         : Lavc59.26.100 wrapped_avframe\n",
      "frame=  200 fps=1.9 q=-0.0 Lsize=N/A time=00:00:04.00 bitrate=N/A speed=0.0375x    \n",
      "video:92kB audio:0kB subtitle:0kB other streams:0kB global headers:0kB muxing overhead: unknown\n",
      "[Parsed_libvmaf_3 @ 0x5603d23825c0] VMAF score: 75.698147\n",
      "ffmpeg version N-106635-g83e1a1de88 Copyright (c) 2000-2022 the FFmpeg developers\n",
      "  built with gcc 9 (Ubuntu 9.4.0-1ubuntu1~20.04.1)\n",
      "  configuration: --prefix=/home/ubuntu/ffmpeg_build --pkg-config-flags=--static --extra-cflags=-I/home/ubuntu/ffmpeg_build/include --extra-ldflags=-L/home/ubuntu/ffmpeg_build/lib --extra-libs='-lpthread -lm' --ld=g++ --bindir=/home/ubuntu/bin --enable-gpl --enable-gnutls --enable-libaom --enable-libass --enable-libfdk-aac --enable-libfreetype --enable-libmp3lame --enable-libopus --enable-libsvtav1 --enable-libdav1d --enable-libvorbis --enable-libvpx --enable-libx264 --enable-libx265 --enable-libvmaf --enable-version3 --enable-nonfree\n",
      "  libavutil      57. 24.101 / 57. 24.101\n",
      "  libavcodec     59. 26.100 / 59. 26.100\n",
      "  libavformat    59. 22.100 / 59. 22.100\n",
      "  libavdevice    59.  6.100 / 59.  6.100\n",
      "  libavfilter     8. 33.100 /  8. 33.100\n",
      "  libswscale      6.  6.100 /  6.  6.100\n",
      "  libswresample   4.  6.100 /  4.  6.100\n",
      "  libpostproc    56.  5.100 / 56.  5.100\n",
      "[rawvideo @ 0x55b709e155c0] Estimating duration from bitrate, this may be inaccurate\n",
      "Input #0, rawvideo, from 'test_vids/refs/waterfall.yuv':\n",
      "  Duration: 00:00:04.00, start: 0.000000, bitrate: 4976640 kb/s\n",
      "  Stream #0:0: Video: rawvideo (I420 / 0x30323449), yuv420p, 3840x2160, 4976640 kb/s, 50 tbr, 50 tbn\n",
      "Input #1, mov,mp4,m4a,3gp,3g2,mj2, from 'test_vids/encoded/waterfall/waterfallHEVC_cf34.mp4':\n",
      "  Metadata:\n",
      "    major_brand     : isom\n",
      "    minor_version   : 512\n",
      "    compatible_brands: isomiso2mp41\n",
      "    encoder         : Lavf59.22.100\n",
      "  Duration: 00:00:04.00, start: 0.000000, bitrate: 16955 kb/s\n",
      "  Stream #1:0[0x1](und): Video: hevc (Main) (hev1 / 0x31766568), yuv420p(tv, progressive), 3840x2160, 16944 kb/s, 50 fps, 50 tbr, 12800 tbn (default)\n",
      "    Metadata:\n",
      "      handler_name    : VideoHandler\n",
      "      vendor_id       : [0][0][0][0]\n",
      "Stream mapping:\n",
      "  Stream #0:0 (rawvideo) -> setpts:default\n",
      "  Stream #1:0 (hevc) -> scale:default\n",
      "  libvmaf:default -> Stream #0:0 (wrapped_avframe)\n",
      "Press [q] to stop, [?] for help\n",
      "Output #0, null, to 'pipe:':\n",
      "  Metadata:\n",
      "    encoder         : Lavf59.22.100\n",
      "  Stream #0:0: Video: wrapped_avframe, yuv420p(tv, progressive), 3840x2160, q=2-31, 200 kb/s, 50 fps, 50 tbn\n",
      "    Metadata:\n",
      "      encoder         : Lavc59.26.100 wrapped_avframe\n",
      "frame=  200 fps=1.9 q=-0.0 Lsize=N/A time=00:00:04.00 bitrate=N/A speed=0.0373x    \n",
      "video:92kB audio:0kB subtitle:0kB other streams:0kB global headers:0kB muxing overhead: unknown\n",
      "[Parsed_libvmaf_3 @ 0x55b70cb02600] VMAF score: 51.499312\n",
      "ffmpeg version N-106635-g83e1a1de88 Copyright (c) 2000-2022 the FFmpeg developers\n",
      "  built with gcc 9 (Ubuntu 9.4.0-1ubuntu1~20.04.1)\n",
      "  configuration: --prefix=/home/ubuntu/ffmpeg_build --pkg-config-flags=--static --extra-cflags=-I/home/ubuntu/ffmpeg_build/include --extra-ldflags=-L/home/ubuntu/ffmpeg_build/lib --extra-libs='-lpthread -lm' --ld=g++ --bindir=/home/ubuntu/bin --enable-gpl --enable-gnutls --enable-libaom --enable-libass --enable-libfdk-aac --enable-libfreetype --enable-libmp3lame --enable-libopus --enable-libsvtav1 --enable-libdav1d --enable-libvorbis --enable-libvpx --enable-libx264 --enable-libx265 --enable-libvmaf --enable-version3 --enable-nonfree\n",
      "  libavutil      57. 24.101 / 57. 24.101\n",
      "  libavcodec     59. 26.100 / 59. 26.100\n",
      "  libavformat    59. 22.100 / 59. 22.100\n",
      "  libavdevice    59.  6.100 / 59.  6.100\n",
      "  libavfilter     8. 33.100 /  8. 33.100\n",
      "  libswscale      6.  6.100 /  6.  6.100\n",
      "  libswresample   4.  6.100 /  4.  6.100\n",
      "  libpostproc    56.  5.100 / 56.  5.100\n",
      "[rawvideo @ 0x56500ac725c0] Estimating duration from bitrate, this may be inaccurate\n",
      "Input #0, rawvideo, from 'test_vids/refs/waterfall.yuv':\n",
      "  Duration: 00:00:04.00, start: 0.000000, bitrate: 4976640 kb/s\n",
      "  Stream #0:0: Video: rawvideo (I420 / 0x30323449), yuv420p, 3840x2160, 4976640 kb/s, 50 tbr, 50 tbn\n",
      "Input #1, mov,mp4,m4a,3gp,3g2,mj2, from 'test_vids/encoded/waterfall/waterfallHEVC_cf40.mp4':\n",
      "  Metadata:\n",
      "    major_brand     : isom\n",
      "    minor_version   : 512\n",
      "    compatible_brands: isomiso2mp41\n",
      "    encoder         : Lavf59.22.100\n",
      "  Duration: 00:00:04.00, start: 0.000000, bitrate: 4550 kb/s\n",
      "  Stream #1:0[0x1](und): Video: hevc (Main) (hev1 / 0x31766568), yuv420p(tv, progressive), 3840x2160, 4539 kb/s, 50 fps, 50 tbr, 12800 tbn (default)\n",
      "    Metadata:\n",
      "      handler_name    : VideoHandler\n",
      "      vendor_id       : [0][0][0][0]\n",
      "Stream mapping:\n",
      "  Stream #0:0 (rawvideo) -> setpts:default\n",
      "  Stream #1:0 (hevc) -> scale:default\n",
      "  libvmaf:default -> Stream #0:0 (wrapped_avframe)\n",
      "Press [q] to stop, [?] for help\n",
      "Output #0, null, to 'pipe:':\n",
      "  Metadata:\n",
      "    encoder         : Lavf59.22.100\n",
      "  Stream #0:0: Video: wrapped_avframe, yuv420p(tv, progressive), 3840x2160, q=2-31, 200 kb/s, 50 fps, 50 tbn\n",
      "    Metadata:\n",
      "      encoder         : Lavc59.26.100 wrapped_avframe\n",
      "frame=  200 fps=1.9 q=-0.0 Lsize=N/A time=00:00:04.00 bitrate=N/A speed=0.0381x    \n",
      "video:92kB audio:0kB subtitle:0kB other streams:0kB global headers:0kB muxing overhead: unknown\n",
      "[Parsed_libvmaf_3 @ 0x56500acb86c0] VMAF score: 24.953694\n",
      "ffmpeg version N-106635-g83e1a1de88 Copyright (c) 2000-2022 the FFmpeg developers\n",
      "  built with gcc 9 (Ubuntu 9.4.0-1ubuntu1~20.04.1)\n",
      "  configuration: --prefix=/home/ubuntu/ffmpeg_build --pkg-config-flags=--static --extra-cflags=-I/home/ubuntu/ffmpeg_build/include --extra-ldflags=-L/home/ubuntu/ffmpeg_build/lib --extra-libs='-lpthread -lm' --ld=g++ --bindir=/home/ubuntu/bin --enable-gpl --enable-gnutls --enable-libaom --enable-libass --enable-libfdk-aac --enable-libfreetype --enable-libmp3lame --enable-libopus --enable-libsvtav1 --enable-libdav1d --enable-libvorbis --enable-libvpx --enable-libx264 --enable-libx265 --enable-libvmaf --enable-version3 --enable-nonfree\n",
      "  libavutil      57. 24.101 / 57. 24.101\n",
      "  libavcodec     59. 26.100 / 59. 26.100\n",
      "  libavformat    59. 22.100 / 59. 22.100\n",
      "  libavdevice    59.  6.100 / 59.  6.100\n",
      "  libavfilter     8. 33.100 /  8. 33.100\n",
      "  libswscale      6.  6.100 /  6.  6.100\n",
      "  libswresample   4.  6.100 /  4.  6.100\n",
      "  libpostproc    56.  5.100 / 56.  5.100\n",
      "[rawvideo @ 0x557f3c66b5c0] Estimating duration from bitrate, this may be inaccurate\n",
      "Input #0, rawvideo, from 'test_vids/refs/waterfall.yuv':\n",
      "  Duration: 00:00:04.00, start: 0.000000, bitrate: 4976640 kb/s\n",
      "  Stream #0:0: Video: rawvideo (I420 / 0x30323449), yuv420p, 3840x2160, 4976640 kb/s, 50 tbr, 50 tbn\n"
     ]
    },
    {
     "name": "stderr",
     "output_type": "stream",
     "text": [
      "Input #1, matroska,webm, from 'test_vids/encoded/waterfall/waterfallVP9_cf15.webm':\n",
      "  Metadata:\n",
      "    ENCODER         : Lavf59.22.100\n",
      "  Duration: 00:00:04.00, start: 0.000000, bitrate: 286075 kb/s\n",
      "  Stream #1:0: Video: vp9 (Profile 0), yuv420p(tv, progressive), 3840x2160, SAR 1:1 DAR 16:9, 50 fps, 50 tbr, 1k tbn\n",
      "    Metadata:\n",
      "      ENCODER         : Lavc59.26.100 libvpx-vp9\n",
      "      DURATION        : 00:00:04.000000000\n",
      "Stream mapping:\n",
      "  Stream #0:0 (rawvideo) -> setpts:default\n",
      "  Stream #1:0 (vp9) -> scale:default\n",
      "  libvmaf:default -> Stream #0:0 (wrapped_avframe)\n",
      "Press [q] to stop, [?] for help\n",
      "Output #0, null, to 'pipe:':\n",
      "  Metadata:\n",
      "    encoder         : Lavf59.22.100\n",
      "  Stream #0:0: Video: wrapped_avframe, yuv420p(tv, progressive), 3840x2160 [SAR 1:1 DAR 16:9], q=2-31, 200 kb/s, 50 fps, 50 tbn\n",
      "    Metadata:\n",
      "      encoder         : Lavc59.26.100 wrapped_avframe\n",
      "frame=  200 fps=1.9 q=-0.0 Lsize=N/A time=00:00:04.00 bitrate=N/A speed=0.0376x    \n",
      "video:92kB audio:0kB subtitle:0kB other streams:0kB global headers:0kB muxing overhead: unknown\n",
      "[Parsed_libvmaf_3 @ 0x557f3c6e8700] VMAF score: 99.982633\n",
      "ffmpeg version N-106635-g83e1a1de88 Copyright (c) 2000-2022 the FFmpeg developers\n",
      "  built with gcc 9 (Ubuntu 9.4.0-1ubuntu1~20.04.1)\n",
      "  configuration: --prefix=/home/ubuntu/ffmpeg_build --pkg-config-flags=--static --extra-cflags=-I/home/ubuntu/ffmpeg_build/include --extra-ldflags=-L/home/ubuntu/ffmpeg_build/lib --extra-libs='-lpthread -lm' --ld=g++ --bindir=/home/ubuntu/bin --enable-gpl --enable-gnutls --enable-libaom --enable-libass --enable-libfdk-aac --enable-libfreetype --enable-libmp3lame --enable-libopus --enable-libsvtav1 --enable-libdav1d --enable-libvorbis --enable-libvpx --enable-libx264 --enable-libx265 --enable-libvmaf --enable-version3 --enable-nonfree\n",
      "  libavutil      57. 24.101 / 57. 24.101\n",
      "  libavcodec     59. 26.100 / 59. 26.100\n",
      "  libavformat    59. 22.100 / 59. 22.100\n",
      "  libavdevice    59.  6.100 / 59.  6.100\n",
      "  libavfilter     8. 33.100 /  8. 33.100\n",
      "  libswscale      6.  6.100 /  6.  6.100\n",
      "  libswresample   4.  6.100 /  4.  6.100\n",
      "  libpostproc    56.  5.100 / 56.  5.100\n",
      "[rawvideo @ 0x564f6c7465c0] Estimating duration from bitrate, this may be inaccurate\n",
      "Input #0, rawvideo, from 'test_vids/refs/waterfall.yuv':\n",
      "  Duration: 00:00:04.00, start: 0.000000, bitrate: 4976640 kb/s\n",
      "  Stream #0:0: Video: rawvideo (I420 / 0x30323449), yuv420p, 3840x2160, 4976640 kb/s, 50 tbr, 50 tbn\n",
      "Input #1, matroska,webm, from 'test_vids/encoded/waterfall/waterfallVP9_cf20.webm':\n",
      "  Metadata:\n",
      "    ENCODER         : Lavf59.22.100\n",
      "  Duration: 00:00:04.00, start: 0.000000, bitrate: 227720 kb/s\n",
      "  Stream #1:0: Video: vp9 (Profile 0), yuv420p(tv, progressive), 3840x2160, SAR 1:1 DAR 16:9, 50 fps, 50 tbr, 1k tbn\n",
      "    Metadata:\n",
      "      ENCODER         : Lavc59.26.100 libvpx-vp9\n",
      "      DURATION        : 00:00:04.000000000\n",
      "Stream mapping:\n",
      "  Stream #0:0 (rawvideo) -> setpts:default\n",
      "  Stream #1:0 (vp9) -> scale:default\n",
      "  libvmaf:default -> Stream #0:0 (wrapped_avframe)\n",
      "Press [q] to stop, [?] for help\n",
      "Output #0, null, to 'pipe:':\n",
      "  Metadata:\n",
      "    encoder         : Lavf59.22.100\n",
      "  Stream #0:0: Video: wrapped_avframe, yuv420p(tv, progressive), 3840x2160 [SAR 1:1 DAR 16:9], q=2-31, 200 kb/s, 50 fps, 50 tbn\n",
      "    Metadata:\n",
      "      encoder         : Lavc59.26.100 wrapped_avframe\n",
      "frame=  200 fps=1.9 q=-0.0 Lsize=N/A time=00:00:04.00 bitrate=N/A speed=0.0374x    \n",
      "video:92kB audio:0kB subtitle:0kB other streams:0kB global headers:0kB muxing overhead: unknown\n",
      "[Parsed_libvmaf_3 @ 0x564f6c7c2880] VMAF score: 99.981254\n",
      "ffmpeg version N-106635-g83e1a1de88 Copyright (c) 2000-2022 the FFmpeg developers\n",
      "  built with gcc 9 (Ubuntu 9.4.0-1ubuntu1~20.04.1)\n",
      "  configuration: --prefix=/home/ubuntu/ffmpeg_build --pkg-config-flags=--static --extra-cflags=-I/home/ubuntu/ffmpeg_build/include --extra-ldflags=-L/home/ubuntu/ffmpeg_build/lib --extra-libs='-lpthread -lm' --ld=g++ --bindir=/home/ubuntu/bin --enable-gpl --enable-gnutls --enable-libaom --enable-libass --enable-libfdk-aac --enable-libfreetype --enable-libmp3lame --enable-libopus --enable-libsvtav1 --enable-libdav1d --enable-libvorbis --enable-libvpx --enable-libx264 --enable-libx265 --enable-libvmaf --enable-version3 --enable-nonfree\n",
      "  libavutil      57. 24.101 / 57. 24.101\n",
      "  libavcodec     59. 26.100 / 59. 26.100\n",
      "  libavformat    59. 22.100 / 59. 22.100\n",
      "  libavdevice    59.  6.100 / 59.  6.100\n",
      "  libavfilter     8. 33.100 /  8. 33.100\n",
      "  libswscale      6.  6.100 /  6.  6.100\n",
      "  libswresample   4.  6.100 /  4.  6.100\n",
      "  libpostproc    56.  5.100 / 56.  5.100\n",
      "[rawvideo @ 0x5637880275c0] Estimating duration from bitrate, this may be inaccurate\n",
      "Input #0, rawvideo, from 'test_vids/refs/waterfall.yuv':\n",
      "  Duration: 00:00:04.00, start: 0.000000, bitrate: 4976640 kb/s\n",
      "  Stream #0:0: Video: rawvideo (I420 / 0x30323449), yuv420p, 3840x2160, 4976640 kb/s, 50 tbr, 50 tbn\n",
      "Input #1, matroska,webm, from 'test_vids/encoded/waterfall/waterfallVP9_cf25.webm':\n",
      "  Metadata:\n",
      "    ENCODER         : Lavf59.22.100\n",
      "  Duration: 00:00:04.00, start: 0.000000, bitrate: 183201 kb/s\n",
      "  Stream #1:0: Video: vp9 (Profile 0), yuv420p(tv, progressive), 3840x2160, SAR 1:1 DAR 16:9, 50 fps, 50 tbr, 1k tbn\n",
      "    Metadata:\n",
      "      ENCODER         : Lavc59.26.100 libvpx-vp9\n",
      "      DURATION        : 00:00:04.000000000\n",
      "Stream mapping:\n",
      "  Stream #0:0 (rawvideo) -> setpts:default\n",
      "  Stream #1:0 (vp9) -> scale:default\n",
      "  libvmaf:default -> Stream #0:0 (wrapped_avframe)\n",
      "Press [q] to stop, [?] for help\n",
      "Output #0, null, to 'pipe:':\n",
      "  Metadata:\n",
      "    encoder         : Lavf59.22.100\n",
      "  Stream #0:0: Video: wrapped_avframe, yuv420p(tv, progressive), 3840x2160 [SAR 1:1 DAR 16:9], q=2-31, 200 kb/s, 50 fps, 50 tbn\n",
      "    Metadata:\n",
      "      encoder         : Lavc59.26.100 wrapped_avframe\n",
      "frame=  200 fps=1.8 q=-0.0 Lsize=N/A time=00:00:04.00 bitrate=N/A speed=0.0369x    \n",
      "video:92kB audio:0kB subtitle:0kB other streams:0kB global headers:0kB muxing overhead: unknown\n",
      "[Parsed_libvmaf_3 @ 0x5637880a4740] VMAF score: 99.740269\n",
      "ffmpeg version N-106635-g83e1a1de88 Copyright (c) 2000-2022 the FFmpeg developers\n",
      "  built with gcc 9 (Ubuntu 9.4.0-1ubuntu1~20.04.1)\n",
      "  configuration: --prefix=/home/ubuntu/ffmpeg_build --pkg-config-flags=--static --extra-cflags=-I/home/ubuntu/ffmpeg_build/include --extra-ldflags=-L/home/ubuntu/ffmpeg_build/lib --extra-libs='-lpthread -lm' --ld=g++ --bindir=/home/ubuntu/bin --enable-gpl --enable-gnutls --enable-libaom --enable-libass --enable-libfdk-aac --enable-libfreetype --enable-libmp3lame --enable-libopus --enable-libsvtav1 --enable-libdav1d --enable-libvorbis --enable-libvpx --enable-libx264 --enable-libx265 --enable-libvmaf --enable-version3 --enable-nonfree\n",
      "  libavutil      57. 24.101 / 57. 24.101\n",
      "  libavcodec     59. 26.100 / 59. 26.100\n",
      "  libavformat    59. 22.100 / 59. 22.100\n",
      "  libavdevice    59.  6.100 / 59.  6.100\n",
      "  libavfilter     8. 33.100 /  8. 33.100\n",
      "  libswscale      6.  6.100 /  6.  6.100\n",
      "  libswresample   4.  6.100 /  4.  6.100\n",
      "  libpostproc    56.  5.100 / 56.  5.100\n",
      "[rawvideo @ 0x55d6a53875c0] Estimating duration from bitrate, this may be inaccurate\n",
      "Input #0, rawvideo, from 'test_vids/refs/waterfall.yuv':\n",
      "  Duration: 00:00:04.00, start: 0.000000, bitrate: 4976640 kb/s\n",
      "  Stream #0:0: Video: rawvideo (I420 / 0x30323449), yuv420p, 3840x2160, 4976640 kb/s, 50 tbr, 50 tbn\n",
      "Input #1, matroska,webm, from 'test_vids/encoded/waterfall/waterfallVP9_cf30.webm':\n",
      "  Metadata:\n",
      "    ENCODER         : Lavf59.22.100\n",
      "  Duration: 00:00:04.00, start: 0.000000, bitrate: 139299 kb/s\n",
      "  Stream #1:0: Video: vp9 (Profile 0), yuv420p(tv, progressive), 3840x2160, SAR 1:1 DAR 16:9, 50 fps, 50 tbr, 1k tbn\n",
      "    Metadata:\n",
      "      ENCODER         : Lavc59.26.100 libvpx-vp9\n",
      "      DURATION        : 00:00:04.000000000\n",
      "Stream mapping:\n",
      "  Stream #0:0 (rawvideo) -> setpts:default\n",
      "  Stream #1:0 (vp9) -> scale:default\n",
      "  libvmaf:default -> Stream #0:0 (wrapped_avframe)\n",
      "Press [q] to stop, [?] for help\n",
      "Output #0, null, to 'pipe:':\n",
      "  Metadata:\n",
      "    encoder         : Lavf59.22.100\n",
      "  Stream #0:0: Video: wrapped_avframe, yuv420p(tv, progressive), 3840x2160 [SAR 1:1 DAR 16:9], q=2-31, 200 kb/s, 50 fps, 50 tbn\n",
      "    Metadata:\n",
      "      encoder         : Lavc59.26.100 wrapped_avframe\n"
     ]
    },
    {
     "name": "stderr",
     "output_type": "stream",
     "text": [
      "frame=  200 fps=1.8 q=-0.0 Lsize=N/A time=00:00:04.00 bitrate=N/A speed=0.0369x    \n",
      "video:92kB audio:0kB subtitle:0kB other streams:0kB global headers:0kB muxing overhead: unknown\n",
      "[Parsed_libvmaf_3 @ 0x55d6a5404840] VMAF score: 97.632177\n",
      "ffmpeg version N-106635-g83e1a1de88 Copyright (c) 2000-2022 the FFmpeg developers\n",
      "  built with gcc 9 (Ubuntu 9.4.0-1ubuntu1~20.04.1)\n",
      "  configuration: --prefix=/home/ubuntu/ffmpeg_build --pkg-config-flags=--static --extra-cflags=-I/home/ubuntu/ffmpeg_build/include --extra-ldflags=-L/home/ubuntu/ffmpeg_build/lib --extra-libs='-lpthread -lm' --ld=g++ --bindir=/home/ubuntu/bin --enable-gpl --enable-gnutls --enable-libaom --enable-libass --enable-libfdk-aac --enable-libfreetype --enable-libmp3lame --enable-libopus --enable-libsvtav1 --enable-libdav1d --enable-libvorbis --enable-libvpx --enable-libx264 --enable-libx265 --enable-libvmaf --enable-version3 --enable-nonfree\n",
      "  libavutil      57. 24.101 / 57. 24.101\n",
      "  libavcodec     59. 26.100 / 59. 26.100\n",
      "  libavformat    59. 22.100 / 59. 22.100\n",
      "  libavdevice    59.  6.100 / 59.  6.100\n",
      "  libavfilter     8. 33.100 /  8. 33.100\n",
      "  libswscale      6.  6.100 /  6.  6.100\n",
      "  libswresample   4.  6.100 /  4.  6.100\n",
      "  libpostproc    56.  5.100 / 56.  5.100\n",
      "[rawvideo @ 0x561ab31515c0] Estimating duration from bitrate, this may be inaccurate\n",
      "Input #0, rawvideo, from 'test_vids/refs/waterfall.yuv':\n",
      "  Duration: 00:00:04.00, start: 0.000000, bitrate: 4976640 kb/s\n",
      "  Stream #0:0: Video: rawvideo (I420 / 0x30323449), yuv420p, 3840x2160, 4976640 kb/s, 50 tbr, 50 tbn\n",
      "Input #1, matroska,webm, from 'test_vids/encoded/waterfall/waterfallVP9_cf35.webm':\n",
      "  Metadata:\n",
      "    ENCODER         : Lavf59.22.100\n",
      "  Duration: 00:00:04.00, start: 0.000000, bitrate: 100431 kb/s\n",
      "  Stream #1:0: Video: vp9 (Profile 0), yuv420p(tv, progressive), 3840x2160, SAR 1:1 DAR 16:9, 50 fps, 50 tbr, 1k tbn\n",
      "    Metadata:\n",
      "      ENCODER         : Lavc59.26.100 libvpx-vp9\n",
      "      DURATION        : 00:00:04.000000000\n",
      "Stream mapping:\n",
      "  Stream #0:0 (rawvideo) -> setpts:default\n",
      "  Stream #1:0 (vp9) -> scale:default\n",
      "  libvmaf:default -> Stream #0:0 (wrapped_avframe)\n",
      "Press [q] to stop, [?] for help\n",
      "Output #0, null, to 'pipe:':\n",
      "  Metadata:\n",
      "    encoder         : Lavf59.22.100\n",
      "  Stream #0:0: Video: wrapped_avframe, yuv420p(tv, progressive), 3840x2160 [SAR 1:1 DAR 16:9], q=2-31, 200 kb/s, 50 fps, 50 tbn\n",
      "    Metadata:\n",
      "      encoder         : Lavc59.26.100 wrapped_avframe\n",
      "frame=  200 fps=1.9 q=-0.0 Lsize=N/A time=00:00:04.00 bitrate=N/A speed=0.0375x    \n",
      "video:92kB audio:0kB subtitle:0kB other streams:0kB global headers:0kB muxing overhead: unknown\n",
      "[Parsed_libvmaf_3 @ 0x561ab31ce640] VMAF score: 93.656261\n"
     ]
    }
   ],
   "source": [
    "import os\n",
    "import json\n",
    "import subprocess\n",
    "\n",
    "source = \"waterfall\"\n",
    "folder = \"test_vids/encoded/\" + source\n",
    "filepath = \"rd_results/rd_testscene.json\"\n",
    "path_ref = \"test_vids/refs/\" + source + \".yuv\"\n",
    "\n",
    "for file in sorted(os.listdir(folder)):\n",
    "    path_dist = os.path.join(folder, file)\n",
    "    c_vmaf = f\"ffmpeg -f rawvideo -r 50 -video_size 3840x2160 -i {path_ref} \\\n",
    "            -i {path_dist} \\\n",
    "            -lavfi \\\"[0:v]setpts=PTS-STARTPTS[ref];\\\n",
    "                     [1:v]scale=3840x2160:flags=bicubic, setpts=PTS-STARTPTS[dist];\\\n",
    "                     [dist][ref]libvmaf=feature=name=psnr:log_path=rd_results/vmaf_logs.json:log_fmt=json\\\" \\\n",
    "            -f null -\"\n",
    "    #|name=float_ssim|name=float_ms_ssim\n",
    "    subprocess.call(c_vmaf, shell=True)\n",
    "    \n",
    "    with open(\"rd_results/vmaf_logs.json\", 'r') as r:\n",
    "        i_data = json.load(r)\n",
    "\n",
    "    vmaf = i_data[\"pooled_metrics\"][\"vmaf\"][\"mean\"]\n",
    "    #ssim = i_data[\"pooled_metrics\"][\"float_ssim\"][\"mean\"]\n",
    "    #ms_ssim = i_data[\"pooled_metrics\"][\"float_ms_ssim\"][\"mean\"]\n",
    "    psnr = (6*i_data[\"pooled_metrics\"][\"psnr_y\"][\"mean\"] + i_data[\"pooled_metrics\"][\"psnr_cb\"][\"mean\"] + i_data[\"pooled_metrics\"][\"psnr_cr\"][\"mean\"])/8\n",
    "    command = \"ffprobe -v error -select_streams v:0 -show_entries format:stream -print_format json \" + path_dist\n",
    "    cout = subprocess.run(command.split(), stdout=subprocess.PIPE, stderr=subprocess.STDOUT).stdout\n",
    "    \n",
    "    dict = json.loads(cout)\n",
    "    file_name = str(dict['format']['filename']).split(\"/\")[-1]\n",
    "    codec = str(dict['streams'][0]['codec_name'])\n",
    "    width = int(dict['streams'][0]['width'])\n",
    "    height = int(dict['streams'][0]['height']) \n",
    "    fps = int(str(dict['streams'][0]['r_frame_rate']).split(\"/\")[0])\n",
    "    crf = int(file_name.split(\"_cf\")[1].split('.')[0])\n",
    "    bitrate = int(dict['format']['bit_rate']) \n",
    "\n",
    "    with open(filepath, 'r') as f:\n",
    "        o_data = json.load(f)\n",
    "    o_data.append({\n",
    "        \"scene_index\": 2, #TODO: scene change\n",
    "        \"video_content\": source,\n",
    "        \"file_name\": file_name,\n",
    "        \"codec\": codec,\n",
    "        \"width\": width,\n",
    "        \"height\": height,\n",
    "        \"framerate\": fps,\n",
    "        \"crf\": crf,\n",
    "        \"bitrate\": bitrate,\n",
    "        \"vmaf\": vmaf,\n",
    "        \"psnr\": psnr\n",
    "    })\n",
    "    with open(filepath, 'w') as w:\n",
    "        json.dump(o_data, w, indent=4, separators=(',',': '))"
   ]
  },
  {
   "cell_type": "markdown",
   "id": "5dc93b6b",
   "metadata": {},
   "source": [
    "Just one - no iterations"
   ]
  },
  {
   "cell_type": "code",
   "execution_count": null,
   "id": "14e4d380",
   "metadata": {},
   "outputs": [],
   "source": [
    "import os\n",
    "import json\n",
    "import subprocess\n",
    "\n",
    "folder = \"test_vids/encoded\"\n",
    "source = \"smithy\"\n",
    "filepath = \"rd_results/rd_\" + source + \".json\"\n",
    "path_ref = \"test_vids/refs/\" + source + \"_3840.yuv\"\n",
    "\n",
    "path_dist = \"test_vids/encoded/smithyAVC_1920_cf1.mp4\"\n",
    "c_vmaf = f\"ffmpeg -f rawvideo -r 50 -video_size 3840x2160 -i {path_ref} \\\n",
    "        -i {path_dist} \\\n",
    "        -lavfi \\\"[0:v]setpts=PTS-STARTPTS[ref];\\\n",
    "                [1:v]scale=3840x2160:flags=bicubic,setpts=PTS-STARTPTS[dist];\\\n",
    "                [dist][ref]libvmaf=feature=name=psnr:log_path=rd_results/vmaf_logs.json:log_fmt=json\\\" \\\n",
    "        -f null -\"\n",
    "#|name=float_ssim|name=float_ms_ssim\n",
    "subprocess.call(c_vmaf, shell=True)\n",
    "\n",
    "with open(\"rd_results/vmaf_logs.json\", 'r') as r:\n",
    "    i_data = json.load(r)\n",
    "\n",
    "vmaf = i_data[\"pooled_metrics\"][\"vmaf\"][\"mean\"]\n",
    "psnr = (6*i_data[\"pooled_metrics\"][\"psnr_y\"][\"mean\"] + i_data[\"pooled_metrics\"][\"psnr_cb\"][\"mean\"] + i_data[\"pooled_metrics\"][\"psnr_cr\"][\"mean\"])/8\n",
    "command = \"ffprobe -v error -select_streams v:0 -show_entries format:stream -print_format json \" + path_dist\n",
    "cout = subprocess.run(command.split(), stdout=subprocess.PIPE, stderr=subprocess.STDOUT).stdout\n",
    "\n",
    "dict = json.loads(cout)\n",
    "file_name = str(dict['format']['filename']).split(\"/\")[-1]\n",
    "codec = str(dict['streams'][0]['codec_name'])\n",
    "width = int(dict['streams'][0]['width'])\n",
    "height = int(dict['streams'][0]['height']) \n",
    "fps = int(str(dict['streams'][0]['r_frame_rate']).split(\"/\")[0])\n",
    "crf = int(file_name.split(\"_cf\")[1].split('.')[0])\n",
    "bitrate = int(dict['format']['bit_rate'])\n",
    "\n",
    "with open(filepath, 'r') as f:\n",
    "    o_data = json.load(f)\n",
    "o_data.append({\n",
    "    \"video_content\": source,\n",
    "    \"file_name\": file_name,\n",
    "    \"codec\": codec,\n",
    "    \"width\": width,\n",
    "    \"height\": height,\n",
    "    \"framerate\": fps,\n",
    "    \"crf\": crf,\n",
    "    \"bitrate\": bitrate,\n",
    "    \"vmaf\": vmaf,\n",
    "    \"psnr\": psnr\n",
    "})\n",
    "with open(filepath, 'w') as w:\n",
    "    json.dump(o_data, w, indent=4, separators=(',',': '))"
   ]
  },
  {
   "cell_type": "markdown",
   "id": "5da2580a",
   "metadata": {},
   "source": [
    "## Generate CSV file"
   ]
  },
  {
   "cell_type": "code",
   "execution_count": 4,
   "id": "18b69d93",
   "metadata": {},
   "outputs": [],
   "source": [
    "import csv\n",
    "import json\n",
    "\n",
    "source = \"testscene\"\n",
    "data_list = []\n",
    "\n",
    "json_file = \"rd_results/rd_\" + source + \".json\"\n",
    "with open(json_file, 'r') as r:\n",
    "    i_data = json.load(r)\n",
    "for item in i_data:\n",
    "    v_entry = []\n",
    "    for meta, value in item.items():\n",
    "        v_entry.append(value)\n",
    "    data_list.append(v_entry)\n",
    "    \n",
    "header = [\"index\", \"content\", \"file\", \"codec\", \"width\", \"height\", \"fps\", \"crf\", \"bitrate\", \"vmaf\", \"psnr\"]\n",
    "\n",
    "csv_file = \"rd_results/rd_\" + source + \".csv\"\n",
    "with open(csv_file, \"w\") as file:\n",
    "    csv_writer = csv.writer(file)\n",
    "    csv_writer.writerow(header)\n",
    "    for row in data_list:\n",
    "        csv_writer.writerow(row)"
   ]
  },
  {
   "cell_type": "code",
   "execution_count": null,
   "id": "e1e714a7",
   "metadata": {},
   "outputs": [],
   "source": []
  }
 ],
 "metadata": {
  "kernelspec": {
   "display_name": "Python 3 (ipykernel)",
   "language": "python",
   "name": "python3"
  },
  "language_info": {
   "codemirror_mode": {
    "name": "ipython",
    "version": 3
   },
   "file_extension": ".py",
   "mimetype": "text/x-python",
   "name": "python",
   "nbconvert_exporter": "python",
   "pygments_lexer": "ipython3",
   "version": "3.8.10"
  }
 },
 "nbformat": 4,
 "nbformat_minor": 5
}
